<svg width="192" height="192" viewBox="0 0 192 192" fill="none" xmlns="http://www.w3.org/2000/svg">
<g clip-path="url(#clip0_6_2)">
<path d="M192 0H0V192H192V0Z" fill="#002233"/>
<path d="M71.6913 51.0801V147H51.081V74.373C49.9469 75.3763 48.5947 76.3359 47.0243 77.252C45.4976 78.1243 43.8619 78.9313 42.1171 79.6729C40.3723 80.3708 38.5621 80.9814 36.6864 81.5049C34.8108 81.9847 32.957 82.3337 31.1249 82.5518V65.1475C36.4902 63.5771 41.5501 61.5706 46.3046 59.1279C51.0592 56.6852 55.3557 54.0026 59.1943 51.0801H71.6913ZM133.685 148.636C111.351 148.636 100.185 132.954 100.185 101.592C100.185 85.3216 103.194 72.9336 109.214 64.4277C115.277 55.8783 124.045 51.6035 135.517 51.6035C157.327 51.6035 168.232 67.5465 168.232 99.4326C168.232 115.31 165.244 127.48 159.268 135.942C153.335 144.405 144.808 148.636 133.685 148.636ZM134.601 67.3721C125.659 67.3721 121.188 78.6042 121.188 101.068C121.188 122.224 125.571 132.802 134.339 132.802C142.888 132.802 147.163 121.897 147.163 100.087C147.163 78.277 142.976 67.3721 134.601 67.3721Z" fill="white"/>
<path d="M71.6913 51.0801H72.6913V50.0801H71.6913V51.0801ZM71.6913 147V148H72.6913V147H71.6913ZM51.081 147H50.081V148H51.081V147ZM51.081 74.373H52.081V72.1533L50.4184 73.6241L51.081 74.373ZM47.0243 77.252L47.5205 78.1202L47.5282 78.1157L47.0243 77.252ZM42.1171 79.6729L42.4885 80.6013L42.4984 80.5974L42.5083 80.5932L42.1171 79.6729ZM36.6864 81.5049L36.9343 82.4737L36.9448 82.471L36.9552 82.4681L36.6864 81.5049ZM31.1249 82.5518H30.1249V83.6779L31.2431 83.5447L31.1249 82.5518ZM31.1249 65.1475L30.844 64.1877L30.1249 64.3982V65.1475H31.1249ZM59.1943 51.0801V50.0801H58.8569L58.5885 50.2844L59.1943 51.0801ZM70.6913 51.0801V147H72.6913V51.0801H70.6913ZM71.6913 146H51.081V148H71.6913V146ZM52.081 147V74.373H50.081V147H52.081ZM50.4184 73.6241C49.3419 74.5763 48.0451 75.4988 46.5205 76.3882L47.5282 78.1157C49.1442 77.1731 50.5518 76.1763 51.7436 75.122L50.4184 73.6241ZM46.5282 76.3837C45.038 77.2353 43.4375 78.0251 41.726 78.7525L42.5083 80.5932C44.2863 79.8375 45.9573 79.0134 47.5205 78.1202L46.5282 76.3837ZM41.7457 78.7444C40.0357 79.4284 38.2598 80.0276 36.4176 80.5417L36.9552 82.4681C38.8644 81.9353 40.709 81.3131 42.4885 80.6013L41.7457 78.7444ZM36.4386 80.5361C34.6035 81.0055 32.793 81.3461 31.0067 81.5588L31.2431 83.5447C33.1209 83.3212 35.0181 82.9639 36.9343 82.4737L36.4386 80.5361ZM32.1249 82.5518V65.1475H30.1249V82.5518H32.1249ZM31.4058 66.1072C36.8291 64.5199 41.9482 62.4903 46.7616 60.0174L45.8476 58.2385C41.1519 60.6509 36.1512 62.6344 30.844 64.1877L31.4058 66.1072ZM46.7616 60.0174C51.5629 57.5507 55.9101 54.8374 59.8 51.8757L58.5885 50.2844C54.8014 53.1678 50.5555 55.8198 45.8476 58.2385L46.7616 60.0174ZM59.1943 52.0801H71.6913V50.0801H59.1943V52.0801ZM109.214 64.4277L108.398 63.8493L108.398 63.8501L109.214 64.4277ZM159.268 135.942L158.451 135.366L158.449 135.368L159.268 135.942ZM133.685 147.636C122.782 147.636 114.738 143.827 109.374 136.295C103.966 128.7 101.185 117.185 101.185 101.592H99.1846C99.1846 117.362 101.987 129.368 107.745 137.455C113.548 145.604 122.254 149.636 133.685 149.636V147.636ZM101.185 101.592C101.185 85.4206 104.18 73.2716 110.03 65.0054L108.398 63.8501C102.209 72.5956 99.1846 85.2226 99.1846 101.592H101.185ZM110.03 65.0062C115.885 56.749 124.333 52.6035 135.517 52.6035V50.6035C123.756 50.6035 114.669 55.0075 108.398 63.8493L110.03 65.0062ZM135.517 52.6035C146.141 52.6035 153.988 56.4649 159.227 64.1254C164.514 71.854 167.232 83.5724 167.232 99.4326H169.232C169.232 83.4067 166.497 71.2106 160.878 62.9962C155.213 54.7136 146.702 50.6035 135.517 50.6035V52.6035ZM167.232 99.4326C167.232 115.207 164.259 127.14 158.451 135.366L160.085 136.519C166.228 127.82 169.232 115.414 169.232 99.4326H167.232ZM158.449 135.368C152.72 143.541 144.511 147.636 133.685 147.636V149.636C145.105 149.636 153.951 145.269 160.086 136.516L158.449 135.368ZM134.601 66.3721C132.136 66.3721 129.951 67.153 128.09 68.7114C126.247 70.2547 124.769 72.5201 123.612 75.4263C121.305 81.2216 120.188 89.7993 120.188 101.068H122.188C122.188 89.8732 123.306 81.6027 125.47 76.166C126.549 73.4561 127.864 71.5095 129.374 70.2448C130.867 68.9951 132.594 68.3721 134.601 68.3721V66.3721ZM120.188 101.068C120.188 111.685 121.283 119.778 123.552 125.251C124.69 127.998 126.146 130.139 127.958 131.598C129.787 133.069 131.929 133.802 134.339 133.802V131.802C132.365 131.802 130.671 131.213 129.212 130.039C127.737 128.853 126.453 127.028 125.399 124.486C123.284 119.381 122.188 111.607 122.188 101.068H120.188ZM134.339 133.802C136.71 133.802 138.81 133.038 140.597 131.519C142.366 130.015 143.782 127.811 144.888 124.988C147.095 119.358 148.163 111.028 148.163 100.087H146.163C146.163 110.956 145.094 118.983 143.026 124.258C141.995 126.888 140.74 128.773 139.302 129.995C137.883 131.202 136.243 131.802 134.339 131.802V133.802ZM148.163 100.087C148.163 89.1468 147.117 80.8193 144.956 75.1923C143.873 72.3714 142.486 70.1668 140.752 68.6616C138.999 67.1394 136.933 66.3721 134.601 66.3721V68.3721C136.455 68.3721 138.054 68.9679 139.441 70.1719C140.848 71.393 142.078 73.2777 143.089 75.9093C145.116 81.1872 146.163 89.2171 146.163 100.087H148.163Z" fill="#0066FF"/>
</g>
<defs>
<clipPath id="clip0_6_2">
<rect width="192" height="192" fill="white"/>
</clipPath>
</defs>
</svg>
